<?xml version='1.0' encoding='utf-8'?>
<svg xmlns="http://www.w3.org/2000/svg" version="1.1" width="710px" height="711px" viewBox="205 746 710 711"> <g id="layer1"> <g style="fill:rgb(255,255,255); fill-opacity:1.0; stroke-linejoin: miter"> <path d="M204.999,745.6097C204.89574,745.6097,204.79669,745.6507,204.72368,745.7237C204.65067,745.7967,204.60963,745.89575,204.60963,745.999L204.61064,1457.0C204.61064,1457.2151,204.78497,1457.3894,205.0,1457.3894L915.001,1457.3904C915.10425,1457.3904,915.2033,1457.3492,915.2763,1457.2762C915.3493,1457.2032,915.3903,1457.1042,915.3903,1457.001L915.38934,746.0C915.38934,745.785,915.215,745.61066,915.0,745.61066L204.999,745.6097 Z"/> </g> <g style="fill:rgb(0,0,0); fill-opacity:1.0; stroke-linejoin: miter"> <path d="M548.0149,871.37244L538.493,926.244L538.5308,926.28076C526.7635,928.2256,515.3814,931.33215,504.51184,935.4584L504.51178,935.4215L468.68744,892.78735L435.13297,912.26135L454.30902,964.5188L454.38312,964.5563C445.28995,972.0492,436.95975,980.4425,429.50546,989.5676L429.46878,989.45667L377.13586,970.48474L357.79327,1004.1155L400.56662,1039.81C396.48965,1050.6885,393.45703,1062.0654,391.55963,1073.8301L391.52158,1073.7932L336.68878,1083.53L336.76474,1122.3448L391.6356,1131.8672L391.67303,1131.8296C393.61646,1143.586,396.6936,1154.9519,400.81354,1165.8134L358.17978,1201.6736L377.65295,1235.2284L429.91223,1216.0522L429.94846,1215.9401C437.43835,1225.0366,445.80133,1233.3976,454.92377,1240.8542L454.84988,1240.8925L435.8782,1293.2263L469.5084,1312.5685L505.16595,1269.7946L505.1659,1269.7561C516.051,1273.8407,527.446,1276.9008,539.22064,1278.8025L539.18256,1278.8378L548.9195,1333.6703L587.69824,1333.5961L597.22046,1278.7251L597.1832,1278.6888C608.94775,1276.7482,620.3334,1273.6677,631.2026,1269.5481L667.06354,1312.182L700.6186,1292.7089L681.4055,1240.4493C690.47766,1232.9756,698.8036,1224.6107,706.2455,1215.5117L758.61554,1234.4834L777.9215,1200.8523L735.1849,1165.1573C739.2625,1154.281,742.3315,1142.9064,744.2281,1131.1396L799.0621,1121.4413L798.9865,1082.6255L744.115,1073.1034C742.1703,1061.3584,739.05383,1050.009,734.9375,1039.1584L777.53455,1003.29675L758.09784,969.74133L705.80176,988.9176C698.3246,979.8478,689.9658,971.51794,680.8646,964.0781L699.87317,911.74304L666.24194,892.4016L630.549,935.1758C619.663,931.09875,608.26495,928.06384,596.4936,926.1688L596.5307,926.13196L586.79346,871.2975L548.0149,871.374 Z M567.60767,965.78064C643.11584,965.63257,704.4745,1026.71,704.6223,1102.212C704.77014,1177.7214,643.65643,1239.0306,568.14276,1239.1785C492.6344,1239.3267,431.3227,1178.2504,431.17612,1102.7468C431.0284,1027.2385,492.1031,965.9282,567.60767,965.78064 Z"/> </g> <g style="fill:rgb(0,0,0); fill-opacity:1.0; stroke-linejoin: miter"> <path d="M557.9083,982.92126C550.55505,984.246,546.25964,985.26184,542.5221,986.55566C533.1305,989.7688,526.40027,994.0597,521.6758,999.85C519.4337,1002.6133,518.2993,1004.34033,516.80725,1007.3225C514.70056,1011.53577,513.21356,1016.09143,511.95398,1022.1045C510.64142,1028.4314,510.17273,1032.7217,509.68518,1042.4979L509.36877,1048.8334L508.3202,1050.37C507.02228,1052.2426,506.38202,1053.4045,505.9474,1054.777C505.54028,1056.0745,505.73663,1057.426,506.52954,1058.6176C507.12573,1059.524,509.1104,1061.1525,510.96014,1062.2543L512.24585,1063.0244L512.7573,1066.421C513.3132,1070.1915,514.23615,1074.0089,515.5258,1078.0187C517.16125,1083.1095,518.4131,1085.7297,521.35156,1090.2136C527.6084,1099.7866,529.62354,1103.6558,530.68494,1108.1814C531.31433,1110.8937,531.2084,1114.5801,530.2622,1122.1664C529.7317,1126.392,528.0043,1136.5499,527.6089,1137.791C527.2926,1138.7878,524.98987,1143.3317,523.2677,1146.3593C521.2458,1149.911,520.15643,1153.6963,519.9294,1157.8856C519.7631,1160.9094,519.27045,1163.0125,518.36566,1164.3868C518.13617,1164.7401,518.154,1164.7377,518.9086,1164.5397C520.6993,1164.0739,527.4549,1163.2003,529.45905,1163.1621C543.63983,1162.9462,558.69086,1168.5447,571.7354,1178.8887C581.30347,1186.4763,588.79456,1195.7769,595.0978,1207.8785C595.7077,1209.0548,596.22345,1210.0436,596.26324,1210.0752C596.28314,1210.0905,601.4684,1204.3724,607.7477,1197.3478C617.4956,1186.4557,619.1642,1184.5021,619.05273,1184.1718C618.9735,1183.9637,618.66516,1183.0415,618.3589,1182.1364C614.9595,1172.2426,610.5969,1164.9053,603.93616,1157.8771C602.1382,1155.9911,601.60803,1155.1854,601.4717,1154.188C601.3745,1153.3667,601.9387,1151.5629,603.05774,1149.0952C603.44446,1148.2351,603.7501,1147.4573,603.7378,1147.35C603.7272,1147.2606,603.4558,1147.1118,603.15576,1147.0206C602.48145,1146.8292,602.47424,1146.9207,603.3138,1144.2333C604.1606,1141.4541,605.42096,1138.807,606.4539,1137.5985L606.8652,1137.0975L609.82086,1137.1451C611.43475,1137.1711,616.42474,1137.2852,620.8912,1137.4066C625.3754,1137.5271,629.39874,1137.5747,629.84467,1137.5216C630.273,1137.471,631.44977,1137.1682,632.408,1136.8557C636.7436,1135.4185,640.39105,1131.8369,640.86896,1128.5413C641.09955,1126.9755,640.75555,1124.9894,639.4936,1120.7593C638.31525,1116.7728,638.23505,1116.095,638.76373,1114.6023C639.07904,1113.7507,639.6325,1112.9249,640.99164,1111.2614C643.2404,1108.552,643.2266,1108.5895,641.387,1106.2018C640.6818,1105.29,640.1076,1104.4171,640.1086,1104.2722C640.1274,1104.1255,640.6097,1103.6154,641.2056,1103.1469C641.78375,1102.6799,642.643,1101.836,643.10126,1101.2749C643.90765,1100.2927,643.9349,1100.217,643.8226,1099.2714C643.7275,1098.4683,643.50775,1097.9875,642.72235,1096.7056C641.8504,1095.3066,641.6507,1094.8419,641.16156,1092.8546C640.5201,1090.3428,640.507,1089.6206,641.03217,1089.0149C641.6678,1088.2701,642.10114,1088.1105,644.4357,1087.6523C646.32623,1087.2649,647.0251,1087.0555,648.3919,1086.3689C650.47577,1085.3254,651.7504,1084.3239,652.33234,1083.2778C652.7338,1082.5424,652.76385,1082.3395,652.60016,1081.1104C652.47516,1080.0573,652.24774,1079.3606,651.6471,1078.1107C650.6815,1076.0717,647.43054,1071.2449,643.82324,1066.4604C638.26385,1059.1028,637.1806,1057.6025,635.4931,1055.1238C634.5324,1053.7356,633.7597,1052.5604,633.7531,1052.5072C633.7469,1052.4539,634.23395,1052.2874,634.8521,1052.1594C641.3687,1050.6449,652.42505,1047.1259,658.953,1044.4879C670.8314,1039.6584,677.78564,1034.5089,676.76526,1031.2456C676.4789,1030.3567,675.2013,1029.3501,673.43164,1028.6185C667.74207,1026.271,657.2146,1025.0945,633.5584,1024.1533C631.08685,1024.0664,628.98773,1023.91736,628.908,1023.8541C628.8283,1023.79126,628.217,1022.4523,627.5605,1020.8832C624.7363,1014.1599,621.26306,1007.45935,618.1564,1002.77856C613.6124,995.8976,609.6959,992.0183,604.30615,989.14685C597.7549,985.6344,593.1421,983.97363,587.3141,983.05347C578.7206,981.7019,571.3456,981.47253,563.173,982.2969C560.8667,982.5343,558.4929,982.8157,557.9083,982.92126 Z"/> </g> <g style="fill:rgb(0,0,0); fill-opacity:1.0; stroke-linejoin: miter"> <path d="M523.0612,1170.5623C518.72687,1171.4021,512.0637,1173.966,508.78265,1176.056C507.60736,1176.8292,504.65588,1180.0201,501.34607,1184.1588C493.43268,1194.0376,484.9975,1207.452,482.90652,1213.4733C481.88455,1216.454,481.64877,1215.9933,485.47507,1218.6525C495.6753,1225.7673,506.0251,1231.399,516.9447,1235.732C525.60535,1239.1753,535.4697,1241.9327,545.209,1243.6375C559.5864,1246.1487,577.2912,1246.3479,591.07855,1244.1876C595.9449,1243.4116,601.1812,1242.3927,601.3543,1242.1732C601.4643,1242.0331,599.9095,1237.3132,598.0081,1231.9642C588.9663,1206.6874,579.05237,1192.0641,563.7076,1181.3962C558.1661,1177.5479,553.1755,1174.9906,547.1767,1172.9331C541.27313,1170.9181,536.7779,1170.0941,531.0451,1169.9773C528.94135,1169.9377,524.7083,1170.2585,523.0612,1170.5623 Z"/> </g> <g style="fill:rgb(0,0,0); fill-opacity:1.0; stroke-linejoin: miter"> <path d="M610.81445,1204.1326C605.06085,1210.5519,600.15765,1216.0559,599.9035,1216.3573L599.4476,1216.9363L601.0081,1220.7869C603.1746,1226.0858,604.49347,1229.73,606.9633,1237.1282C607.55597,1238.9224,608.0992,1240.4498,608.1591,1240.4974C608.3985,1240.686,614.0467,1239.0209,618.40765,1237.4906C622.4379,1236.0718,625.4122,1234.9047,629.26605,1233.2167C631.31134,1232.3044,633.37885,1231.4257,633.84576,1231.2438C634.2928,1231.0463,634.7044,1230.8529,634.7514,1230.7931C634.79877,1230.7327,634.4045,1230.3092,633.8792,1229.8466C632.8305,1228.9391,630.7149,1226.5118,629.898,1225.2699C628.383,1223.0242,627.019,1219.458,625.8781,1214.8695C625.22345,1212.2506,624.9881,1211.0299,623.3801,1202.3536C622.6343,1198.3519,621.42664,1192.5952,621.3247,1192.4987C621.28687,1192.4851,616.5685,1197.7136,610.81445,1204.1326 Z"/> </g> </g> </svg>